<?xml version="1.0" encoding="UTF-8" standalone="no"?>
<!DOCTYPE svg PUBLIC "-//W3C//DTD SVG 20010904//EN" "http://www.w3.org/TR/2001/REC-SVG-20010904/DTD/svg10.dtd">
<svg version="1.0" xmlns="http://www.w3.org/2000/svg" width="1059.000000pt" height="1280.000000pt" viewBox="0 0 1059.000000 1280.000000" preserveAspectRatio="xMidYMid meet">
<metadata>
Created by potrace 1.15, written by Peter Selinger 2001-2017
</metadata>
<g transform="translate(0.000000,1280.000000) scale(0.100000,-0.100000)" fill="#9e9e9e" stroke="none">
<path d="M5252 12745 l-33 -55 20 -34 c28 -45 27 -48 -18 -23 l-38 21 -52 -33 c-28 -18 -51 -38 -51 -45 1 -14 85 -66 109 -66 9 0 26 7 37 15 31 24 36 17 12 -20 -13 -19 -32 -35 -43 -37 -11 -2 -22 -12 -24 -23 -2 -11 -12 -26 -22 -33 -11 -7 -19 -24 -19 -37 0 -13 -5 -27 -11 -31 -6 -4 -9 -20 -6 -39 3 -17 1 -38 -3 -46 -6 -9 -4 -22 5 -36 8 -12 12 -29 9 -37 -3 -8 4 -24 15 -35 12 -12 21 -25 21 -30 0 -5 7 -16 15 -24 13 -13 10 -16 -20 -21 -21 -4 -45 -20 -65 -43 -29 -32 -32 -41 -27 -81 3 -29 13 -53 30 -69 23 -23 23 -27 11 -53 -16 -30 -8 -66 19 -88 14 -12 12 -62 -3 -62 -14 0 -59 117 -86 225 -23 90 -33 116 -59 142 -28 28 -38 32 -91 32 -51 0 -64 -5 -99 -32 -22 -18 -58 -38 -80 -46 -113 -37 -210 -96 -291 -176 -94 -93 -144 -183 -170 -305 -40 -190 23 -440 165 -656 39 -59 51 -84 46 -102 -7 -28 10 -52 36 -52 32 0 91 -120 114 -233 4 -21 13 -29 35 -34 17 -3 33 -9 36 -14 6 -11 -38 -98 -92 -180 -64 -97 -71 -100 -71 -31 0 117 -57 215 -165 283 -29 18 -62 40 -73 50 -11 9 -34 20 -51 23 -38 8 -52 -6 -92 -94 -28 -63 -62 -107 -62 -81 0 7 7 20 16 28 8 9 13 24 11 34 -3 10 4 26 14 35 26 24 24 61 -6 88 -21 20 -23 26 -13 37 51 55 52 133 1 187 -18 19 -16 37 2 22 12 -10 21 -10 45 0 16 7 30 16 30 21 0 16 -50 41 -71 36 -17 -4 -19 -3 -10 6 14 14 14 42 0 69 -11 20 -11 20 -35 -3 -19 -18 -23 -30 -19 -48 5 -21 4 -23 -9 -12 -13 11 -22 11 -46 1 -16 -7 -30 -16 -30 -20 0 -17 41 -42 60 -37 24 6 27 -11 3 -20 -58 -20 -95 -125 -65 -180 8 -13 4 -20 -22 -32 -34 -17 -45 -55 -27 -89 7 -13 7 -22 -1 -30 -9 -9 -9 -18 0 -36 6 -14 7 -28 3 -31 -12 -7 -20 17 -27 83 -10 94 -21 121 -57 130 -19 6 -40 5 -51 0 -10 -6 -50 -19 -90 -29 -211 -59 -304 -223 -251 -447 8 -34 24 -81 36 -104 11 -22 18 -49 16 -60 -3 -11 0 -21 8 -24 15 -6 49 -83 40 -92 -12 -12 -180 190 -215 258 -28 55 -40 164 -40 368 0 284 -13 335 -98 383 -78 44 -146 96 -235 178 -41 38 -90 77 -107 86 -49 26 -128 21 -191 -10 -67 -35 -125 -51 -222 -64 -93 -13 -121 -26 -171 -81 -75 -83 -106 -198 -71 -260 38 -66 4 -130 -94 -180 -34 -17 -72 -47 -94 -73 -38 -47 -101 -77 -159 -77 -15 0 -28 -4 -28 -9 0 -12 89 -49 152 -62 29 -6 67 -20 85 -30 32 -20 93 -82 110 -114 14 -25 46 -12 103 41 25 24 78 59 116 78 75 37 110 76 134 151 6 22 26 65 44 95 29 52 31 60 31 163 l0 107 41 0 c70 0 138 -27 193 -76 84 -75 98 -109 105 -249 6 -129 25 -223 55 -284 33 -63 165 -234 224 -287 61 -56 145 -114 194 -133 l33 -13 -30 -35 c-17 -18 -30 -43 -30 -54 0 -12 -10 -23 -25 -29 -14 -5 -30 -21 -37 -35 -9 -20 -18 -25 -50 -25 -79 0 -190 -83 -228 -172 -74 -173 11 -358 199 -434 23 -9 44 -14 47 -12 2 3 -1 25 -7 50 -23 84 6 122 92 121 82 -1 153 -53 200 -145 17 -33 24 -39 42 -34 129 36 234 28 337 -24 52 -26 166 -118 157 -126 -2 -3 -31 8 -63 23 -82 37 -191 43 -300 15 -192 -49 -374 -55 -464 -15 -57 25 -73 45 -75 90 -1 43 -10 48 -64 33 -68 -18 -86 -63 -55 -141 34 -84 159 -126 344 -115 124 7 244 26 354 55 92 24 197 27 241 6 l30 -15 -35 8 c-19 4 -66 7 -105 6 -82 0 -125 -19 -201 -87 -27 -24 -59 -49 -71 -55 -32 -17 -82 -14 -131 8 l-43 20 6 -23 c44 -148 130 -227 247 -227 59 0 188 34 188 50 0 5 -11 17 -26 26 -14 9 -32 30 -40 46 -19 37 -4 72 45 105 115 78 258 31 278 -89 4 -29 0 -41 -26 -71 l-31 -35 43 -17 c39 -15 48 -15 79 -2 41 17 73 74 84 152 7 48 19 69 36 59 4 -3 8 -38 8 -77 0 -71 -23 -145 -49 -161 -20 -13 -1 -26 35 -26 41 0 72 14 96 44 25 31 33 13 33 -72 0 -93 -19 -127 -98 -172 -49 -28 -50 -29 -24 -35 15 -4 27 -10 27 -14 0 -19 -57 -80 -105 -113 -45 -30 -52 -38 -40 -48 12 -10 11 -16 -7 -41 -15 -20 -25 -26 -32 -19 -5 5 -22 10 -37 10 -29 0 -59 -31 -59 -61 0 -12 -7 -15 -24 -12 -35 7 -69 -30 -64 -68 3 -22 0 -30 -14 -35 -10 -3 -26 -16 -34 -29 -14 -21 -14 -28 -1 -53 12 -26 12 -31 -5 -51 -24 -31 -23 -56 4 -83 28 -28 31 -100 6 -144 -30 -52 -58 -144 -58 -189 0 -22 -7 -50 -15 -61 -16 -22 -20 -12 -5 16 14 26 -10 43 -52 35 -26 -5 -37 -15 -50 -44 -10 -21 -18 -43 -18 -49 0 -17 -17 -15 -24 4 -9 22 -26 7 -27 -24 0 -15 -3 -21 -6 -14 -8 21 -23 13 -23 -13 0 -18 -4 -23 -15 -19 -18 7 -20 -18 -3 -49 10 -20 10 -21 -6 -8 -24 20 -33 4 -14 -28 15 -27 15 -28 -3 -24 -23 6 -24 -5 -2 -29 15 -17 15 -18 -6 -18 -18 0 -20 -3 -12 -19 9 -16 4 -23 -37 -49 -112 -72 -207 -92 -250 -51 -12 11 -40 55 -61 97 -51 101 -75 125 -164 166 -113 51 -129 88 -80 184 36 71 96 123 169 146 109 34 149 107 149 271 l0 90 -56 81 c-73 106 -77 129 -43 264 27 108 27 109 11 176 -31 125 -111 215 -317 359 -169 119 -249 185 -355 296 -102 108 -162 211 -174 300 l-7 54 -33 -57 c-18 -32 -34 -58 -36 -58 -2 0 -26 31 -54 68 -137 186 -227 424 -266 708 -20 140 -38 199 -73 237 -79 83 -188 -40 -237 -268 -53 -246 -37 -536 42 -798 39 -129 20 -130 -73 -4 -97 131 -208 335 -290 534 -20 48 -44 102 -55 119 -45 74 -116 62 -167 -27 -145 -257 -121 -577 66 -883 41 -66 42 -71 42 -154 l0 -85 -26 24 c-38 35 -140 168 -224 292 -130 193 -216 268 -281 245 -53 -18 -80 -144 -60 -278 15 -96 66 -248 134 -398 114 -253 244 -431 432 -591 l50 -43 -70 37 c-38 20 -106 62 -150 94 -83 58 -299 268 -445 430 -100 112 -151 151 -196 151 -39 0 -66 -32 -84 -98 -30 -115 45 -343 184 -557 120 -185 362 -444 548 -590 42 -33 75 -61 73 -63 -8 -8 -172 55 -280 108 -147 72 -253 142 -410 271 -241 199 -340 212 -338 45 4 -288 470 -775 949 -991 92 -42 96 -45 61 -45 -151 0 -518 120 -861 283 -154 72 -222 85 -250 46 -52 -74 28 -263 167 -396 109 -104 366 -270 557 -361 52 -25 158 -67 235 -93 l140 -48 -88 -1 c-209 -1 -416 39 -701 136 -213 72 -250 77 -287 38 -88 -93 59 -309 317 -465 65 -40 93 -64 94 -82 0 -4 -9 -3 -20 3 -16 9 -20 8 -20 -6 0 -10 7 -25 16 -35 15 -16 14 -17 -5 -12 -25 6 -27 -4 -4 -29 9 -11 11 -18 5 -18 -22 0 -12 -29 16 -44 25 -14 26 -15 5 -16 -33 0 -28 -19 9 -35 18 -8 25 -14 16 -15 -29 0 -30 -20 -1 -31 19 -7 23 -13 15 -18 -21 -12 13 -34 44 -28 21 4 23 2 12 -8 -7 -7 -62 -22 -121 -34 -164 -32 -216 -66 -202 -131 14 -64 150 -148 313 -192 61 -17 111 -22 239 -24 127 -2 167 -6 185 -18 12 -9 31 -13 45 -10 17 5 30 -2 53 -26 16 -18 30 -36 30 -40 0 -10 -134 -87 -276 -158 -152 -76 -196 -119 -175 -170 28 -68 136 -101 326 -101 107 -1 243 19 305 43 11 5 30 -26 76 -123 l61 -129 -33 -42 c-52 -66 -79 -128 -68 -159 21 -58 116 -65 232 -18 l62 26 2 -27 c1 -15 0 -46 -1 -70 -3 -49 30 -126 61 -143 11 -6 31 -9 44 -6 27 5 48 -15 58 -55 3 -16 12 -28 18 -28 6 0 2 -11 -11 -24 -12 -13 -24 -39 -28 -59 -7 -47 29 -87 81 -87 33 0 34 -1 41 -49 12 -87 75 -201 178 -319 l38 -44 -67 -70 -67 -69 6 -49 c7 -59 37 -121 72 -148 22 -18 25 -26 20 -55 -13 -69 70 -187 130 -187 17 0 25 -6 25 -17 0 -9 36 -52 80 -95 63 -61 87 -78 110 -78 23 0 30 -5 35 -30 13 -60 85 -86 172 -61 l31 9 -5 -34 c-7 -41 14 -70 57 -79 l27 -6 -33 -33 c-44 -44 -46 -86 -5 -127 35 -35 75 -38 131 -9 l39 20 -5 -33 c-8 -46 30 -99 80 -112 86 -21 157 65 119 144 -10 20 -32 43 -51 52 l-33 17 36 22 c67 41 80 106 33 158 -23 24 -84 30 -118 12 -16 -9 -18 -6 -13 30 6 45 -15 80 -49 80 -25 0 -23 12 7 40 13 13 32 42 41 66 14 38 15 46 2 72 -14 27 -13 31 9 56 12 15 23 38 23 50 0 54 66 101 225 157 170 60 452 204 573 294 58 42 62 43 72 25 36 -67 14 -155 -48 -197 l-33 -22 43 -11 c105 -29 170 13 199 127 l17 68 12 -45 c11 -37 10 -55 -2 -102 l-15 -58 38 0 c118 0 199 105 186 244 l-6 61 39 -41 c50 -54 67 -109 54 -175 -9 -40 -8 -49 3 -49 30 0 95 43 123 82 67 93 65 206 -7 339 -2 4 16 2 41 -3 104 -22 184 42 209 168 l6 31 -68 -5 c-63 -4 -69 -3 -85 19 -20 29 -21 81 -1 119 45 88 239 113 373 49 93 -45 160 -175 149 -289 -8 -92 -78 -202 -147 -230 -47 -19 -129 -8 -151 21 -26 34 -23 76 7 116 l25 33 -33 0 c-45 -1 -113 -33 -133 -64 -44 -67 -37 -153 16 -185 l29 -18 -39 -21 c-52 -29 -97 -83 -110 -129 -15 -51 -14 -70 5 -133 l16 -54 13 29 c27 65 90 119 187 159 l36 16 -1 -44 c-3 -62 28 -95 111 -120 20 -7 22 -5 17 16 -8 32 25 80 82 122 26 19 49 33 50 32 6 -5 -25 -84 -63 -160 -66 -132 -172 -249 -283 -309 -120 -66 -371 -98 -484 -62 -98 31 -153 98 -133 163 7 21 45 42 76 42 29 0 25 11 -17 52 -110 105 -232 89 -297 -39 -43 -85 -28 -184 38 -250 l42 -42 -50 -6 c-384 -47 -572 -167 -646 -413 -18 -59 -21 -90 -18 -155 6 -105 33 -163 113 -242 l60 -60 0 -75 c1 -54 6 -82 19 -102 33 -51 62 -61 186 -68 127 -8 153 -15 190 -54 20 -22 25 -40 28 -96 2 -39 8 -70 12 -70 15 0 89 60 113 92 72 97 58 202 -39 307 l-54 59 21 36 c18 30 21 48 17 107 -4 67 -6 73 -40 105 -34 31 -67 44 -147 60 -32 7 -32 7 -26 -27 5 -27 1 -41 -15 -62 -18 -23 -29 -27 -70 -27 -37 0 -56 6 -76 23 -24 21 -27 31 -27 83 1 71 25 136 63 168 26 22 39 23 192 28 89 3 171 9 181 13 15 6 14 1 -7 -30 -45 -66 -43 -138 7 -228 44 -80 140 -103 241 -59 l48 22 -22 35 c-61 98 46 203 355 349 76 36 176 91 223 123 114 75 244 206 317 318 74 114 75 115 70 74 -3 -19 -10 -74 -16 -124 -23 -183 -86 -371 -164 -491 -58 -88 -159 -183 -240 -226 -175 -91 -255 -71 -255 63 0 51 0 51 -27 44 -52 -12 -128 -62 -157 -102 -51 -73 -47 -197 8 -243 14 -11 6 -19 -60 -62 -128 -85 -193 -194 -214 -361 -27 -215 76 -371 267 -407 76 -15 135 -8 204 21 80 35 115 106 90 182 -27 82 -86 117 -161 97 -41 -11 -41 -11 -26 -35 22 -34 20 -52 -9 -71 -32 -21 -100 -14 -128 14 -71 71 10 263 141 335 l49 27 6 -69 c14 -170 126 -249 278 -196 75 27 112 73 124 159 7 42 6 48 -8 43 -9 -3 -35 -11 -58 -17 -37 -10 -45 -9 -68 8 -22 16 -26 27 -26 69 1 71 39 128 143 215 48 39 124 108 169 151 l82 79 5 -33 c3 -19 8 -64 11 -100 7 -85 32 -181 78 -295 21 -50 37 -99 37 -107 0 -18 -35 -41 -49 -33 -20 13 -82 -17 -121 -60 -51 -56 -82 -123 -115 -255 -15 -56 -33 -115 -41 -131 -20 -39 -58 -61 -106 -62 -54 -1 -81 -36 -82 -105 -1 -58 22 -96 75 -124 27 -14 50 -17 114 -13 44 2 92 7 108 11 21 6 27 4 27 -9 0 -9 12 -29 26 -43 22 -22 32 -25 68 -20 42 6 42 6 43 -27 1 -41 24 -86 70 -137 20 -22 55 -76 77 -119 l41 -79 37 72 c21 40 60 99 87 130 47 57 80 134 67 156 -5 7 7 9 36 5 35 -5 48 -2 71 16 15 12 27 31 27 42 0 17 4 19 28 13 15 -4 63 -9 107 -11 94 -6 135 10 173 66 19 28 23 44 19 79 -7 64 -35 96 -85 97 -48 1 -86 23 -106 62 -7 15 -28 80 -45 145 -36 138 -68 202 -128 257 -38 36 -62 46 -100 41 -20 -3 -53 18 -53 33 0 8 19 60 41 117 40 100 72 237 85 362 l6 59 81 -79 c45 -44 121 -112 169 -151 91 -75 135 -135 145 -196 14 -85 -24 -117 -108 -92 l-49 14 0 -45 c0 -101 86 -173 207 -173 115 0 193 93 193 229 0 45 7 48 51 25 51 -26 109 -85 137 -138 35 -68 38 -165 6 -196 -29 -30 -94 -37 -128 -15 -30 20 -32 36 -10 69 17 28 12 33 -42 41 -56 8 -103 -18 -131 -75 -56 -109 1 -198 146 -232 41 -9 68 -9 122 0 153 26 237 103 275 251 13 53 14 79 6 150 -20 170 -87 284 -216 369 -66 43 -74 51 -60 62 55 47 60 169 9 241 -30 42 -105 92 -157 104 -28 7 -28 7 -28 -44 0 -130 -78 -153 -241 -70 -200 101 -342 325 -403 635 -18 92 -35 248 -26 237 4 -5 33 -48 66 -98 73 -113 203 -243 315 -318 48 -31 147 -86 221 -121 208 -99 297 -158 349 -229 34 -47 36 -80 9 -125 l-20 -33 47 -21 c105 -46 197 -20 245 69 47 88 46 176 -4 231 -21 23 -21 25 -3 18 11 -5 94 -11 183 -14 154 -5 166 -6 192 -29 37 -31 64 -103 64 -171 0 -47 -3 -58 -27 -78 -42 -36 -118 -34 -146 3 -17 20 -20 34 -15 61 l7 34 -34 -7 c-109 -22 -147 -43 -174 -95 -21 -41 -19 -128 5 -174 l19 -39 -54 -59 c-123 -133 -106 -281 45 -381 13 -10 27 -17 31 -17 4 0 9 31 11 70 3 56 8 74 28 96 37 39 63 46 191 54 126 7 153 17 186 67 13 20 18 47 18 103 l0 75 61 60 c79 78 107 138 112 234 10 187 -81 360 -239 454 -83 49 -218 92 -351 111 -58 9 -111 16 -117 16 -6 0 7 16 28 36 89 80 92 219 7 312 -47 53 -126 67 -189 36 -32 -16 -107 -82 -107 -95 0 -3 18 -9 40 -13 48 -8 66 -36 56 -90 -9 -45 -60 -88 -133 -111 -46 -15 -78 -17 -172 -12 -214 10 -338 64 -467 200 -60 63 -85 101 -129 190 -30 62 -57 122 -60 135 l-6 22 33 -20 c60 -35 101 -86 102 -125 1 -30 4 -34 21 -29 81 24 121 73 109 133 l-7 32 44 -17 c90 -35 189 -126 189 -173 0 -33 19 6 31 64 20 102 -14 175 -108 235 -42 27 -42 27 -18 38 13 6 32 26 41 43 14 28 15 40 5 84 -7 29 -22 62 -34 73 -30 28 -89 52 -128 52 l-31 0 26 -31 c34 -40 35 -91 1 -124 -19 -20 -34 -25 -75 -25 -63 0 -97 17 -144 71 -52 62 -79 140 -73 215 14 190 173 306 373 274 78 -13 128 -39 149 -80 20 -38 19 -90 -1 -119 -16 -22 -22 -23 -86 -18 -62 5 -68 4 -64 -11 3 -9 11 -37 18 -62 16 -57 73 -115 121 -124 19 -4 54 -2 77 3 22 5 39 6 38 3 -29 -54 -50 -111 -55 -151 -12 -102 38 -211 116 -251 63 -32 69 -28 57 29 -13 66 4 121 54 175 l39 41 -6 -51 c-16 -141 67 -254 188 -254 35 0 40 2 34 17 -17 41 -24 90 -18 123 10 58 20 67 27 24 13 -67 42 -121 75 -138 31 -17 59 -20 151 -16 87 3 213 -50 348 -145 43 -31 93 -54 160 -75 73 -23 110 -40 147 -71 83 -69 99 -74 200 -71 150 5 187 5 262 -3 65 -7 77 -5 125 18 35 16 78 27 128 31 80 6 160 28 200 56 14 10 44 21 68 25 54 9 104 51 144 122 32 57 61 89 127 141 56 45 81 97 81 167 0 50 -4 60 -30 87 l-31 30 23 67 c12 36 28 76 36 88 9 15 12 34 8 55 -4 18 -11 66 -16 106 -12 99 -44 189 -93 263 -23 34 -45 67 -49 73 -50 77 -283 466 -307 513 l-31 62 25 25 24 24 70 -81 c162 -188 363 -328 584 -406 122 -43 191 -40 218 10 25 48 -10 106 -199 332 -63 75 -145 177 -184 229 -73 97 -198 282 -198 293 0 3 31 -22 70 -56 187 -168 409 -296 605 -349 157 -44 432 -37 512 12 37 22 73 64 73 84 0 35 -67 85 -222 166 -190 99 -323 181 -465 287 -100 74 -131 106 -75 77 47 -24 243 -87 337 -107 139 -31 346 -36 465 -11 174 36 314 108 355 184 41 77 -13 115 -222 154 -319 60 -522 112 -648 168 -29 13 -29 13 40 20 390 40 704 171 910 381 123 126 163 238 105 300 -23 25 -30 27 -80 22 -30 -3 -111 -26 -180 -51 -248 -93 -446 -134 -670 -142 l-145 -5 140 49 c77 27 183 69 235 93 181 86 449 259 552 357 142 135 224 326 172 401 -28 39 -96 26 -250 -46 -344 -163 -739 -291 -863 -281 -35 3 -34 4 35 31 191 75 449 252 634 437 167 166 265 301 317 439 31 82 35 177 9 216 -16 25 -22 27 -66 23 -59 -6 -116 -41 -255 -156 -197 -165 -416 -293 -609 -357 -43 -14 -80 -25 -81 -23 -2 2 31 30 73 63 42 33 134 116 205 185 256 247 427 497 502 730 48 153 34 293 -34 326 -43 22 -80 -2 -196 -124 -240 -251 -374 -382 -451 -439 -83 -61 -212 -138 -220 -131 -2 2 28 30 66 62 179 147 350 412 464 718 51 137 69 219 70 323 2 133 -25 195 -85 195 -67 0 -138 -68 -259 -247 -84 -124 -186 -257 -224 -292 l-26 -24 0 85 c0 83 1 88 42 154 103 168 159 349 159 512 0 113 -10 173 -45 265 -55 145 -111 203 -171 175 -32 -14 -53 -49 -99 -161 -122 -297 -346 -660 -384 -622 -3 3 7 44 21 92 97 318 97 685 1 936 -34 88 -96 157 -141 157 -66 0 -108 -88 -128 -265 -19 -172 -83 -385 -160 -534 -40 -77 -148 -241 -160 -241 -2 0 -18 26 -36 58 l-33 57 -7 -51 c-23 -176 -190 -360 -574 -631 -113 -79 -211 -179 -243 -244 -12 -24 -26 -68 -33 -98 -10 -49 -9 -66 16 -165 32 -130 28 -165 -31 -242 -69 -90 -77 -115 -71 -212 10 -156 46 -215 151 -248 73 -23 136 -77 170 -146 49 -97 33 -131 -89 -189 -90 -42 -104 -56 -155 -159 -18 -36 -44 -77 -58 -92 -46 -50 -129 -34 -263 48 -51 32 -56 38 -43 51 18 18 9 34 -14 26 -16 -6 -16 -5 1 14 22 26 22 37 -3 30 -18 -5 -18 -3 -4 19 17 25 11 46 -10 38 -9 -3 -11 3 -8 26 4 25 1 29 -12 24 -12 -5 -15 -2 -10 9 9 25 -5 40 -24 25 -13 -11 -15 -11 -10 3 3 9 2 22 -3 30 -8 12 -12 11 -23 -4 -14 -18 -15 -18 -18 4 -4 29 -28 38 -28 11 0 -12 -7 -27 -15 -36 -8 -8 -15 -19 -15 -24 0 -4 -11 -19 -24 -31 -26 -24 -30 -67 -9 -93 9 -10 9 -18 2 -25 -14 -14 -49 -5 -49 13 0 7 -6 17 -14 21 -17 10 -22 32 -11 56 6 14 10 16 16 6 6 -11 13 -8 32 9 25 24 30 78 9 91 -8 5 -5 12 8 24 11 9 17 23 14 32 -4 8 -2 15 4 15 5 0 12 -13 16 -30 5 -28 26 -43 26 -19 0 7 8 18 18 25 10 8 12 13 5 14 -7 0 -13 6 -13 14 0 17 -69 29 -85 16 -9 -8 -14 3 -18 40 -3 28 -21 81 -38 118 -41 85 -45 155 -11 189 27 27 28 44 4 74 -17 20 -17 25 -5 51 13 26 13 32 -2 55 -9 14 -25 27 -34 30 -13 3 -16 12 -13 34 6 38 -21 69 -59 69 -21 0 -28 5 -31 21 -2 12 -14 31 -29 41 -20 16 -30 17 -53 8 -24 -9 -30 -7 -46 12 -16 19 -17 25 -5 37 11 11 5 20 -43 52 -68 45 -114 106 -91 120 8 5 21 9 29 9 8 0 -8 14 -37 30 -79 45 -98 79 -98 172 0 85 8 103 33 72 22 -28 54 -44 89 -44 36 0 60 14 43 25 -27 17 -50 90 -50 162 0 39 4 74 8 77 17 10 29 -11 36 -59 11 -78 43 -135 84 -152 31 -13 40 -13 79 2 23 9 43 18 43 20 0 2 -13 17 -30 33 -32 33 -36 54 -19 99 38 101 167 129 270 60 49 -33 64 -68 45 -105 -8 -16 -26 -37 -40 -46 -15 -9 -26 -20 -26 -25 0 -14 128 -51 178 -51 106 0 173 43 221 143 16 34 32 72 36 84 l6 23 -43 -20 c-49 -22 -99 -25 -131 -8 -12 6 -44 31 -71 55 -78 70 -119 87 -206 88 -41 0 -88 -4 -105 -8 -24 -7 -27 -6 -18 4 7 7 48 14 91 17 63 3 100 -1 183 -22 392 -98 665 -59 695 98 12 67 -16 99 -95 112 -43 7 -44 6 -38 -16 11 -42 -18 -89 -70 -113 -42 -19 -64 -22 -183 -22 -112 1 -154 5 -247 28 -136 33 -221 35 -306 6 -34 -11 -68 -26 -75 -31 -7 -6 -15 -9 -18 -6 -9 10 106 105 160 131 79 39 172 53 249 39 34 -7 71 -15 83 -18 18 -5 26 4 52 49 41 72 92 114 158 127 42 9 59 8 88 -4 43 -18 54 -51 37 -114 -6 -25 -9 -47 -7 -50 8 -8 67 19 125 56 135 89 183 245 121 390 -38 89 -149 172 -228 172 -32 0 -41 5 -50 25 -7 14 -23 30 -37 35 -15 6 -25 17 -25 29 0 11 -13 36 -30 54 l-30 35 31 12 c50 21 140 83 200 138 54 50 191 227 223 289 28 55 46 153 53 282 6 122 7 124 44 181 60 89 152 140 253 140 l41 0 0 -102 c0 -96 2 -107 31 -163 17 -33 37 -78 44 -100 24 -73 58 -113 125 -144 34 -16 88 -52 120 -80 69 -60 94 -71 108 -45 24 45 116 123 159 134 95 24 151 44 171 61 l22 18 -26 1 c-14 0 -48 7 -77 15 -39 12 -60 26 -88 60 -21 26 -62 59 -96 77 -99 53 -131 112 -93 178 64 113 -84 339 -222 340 -54 1 -166 30 -235 62 -81 37 -144 41 -198 13 -19 -10 -71 -52 -115 -93 -66 -61 -167 -135 -269 -197 -39 -23 -49 -89 -57 -365 -7 -273 -13 -314 -54 -385 -38 -66 -191 -243 -201 -232 -8 8 21 79 37 88 10 5 15 16 13 26 -3 10 6 43 20 74 106 241 23 466 -197 529 -39 12 -85 27 -102 34 -20 8 -41 10 -62 4 -36 -9 -47 -36 -57 -130 -7 -66 -15 -90 -27 -83 -4 3 -3 17 3 31 9 18 9 27 0 36 -8 8 -8 17 -1 30 18 34 7 72 -27 89 -26 12 -30 19 -22 32 30 55 -7 160 -64 180 -25 9 -22 26 2 20 19 -5 60 20 60 37 0 4 -14 13 -30 20 -24 10 -33 10 -46 -1 -13 -11 -14 -9 -9 12 4 18 0 30 -19 48 -24 23 -24 23 -35 3 -14 -27 -14 -55 0 -69 9 -9 7 -11 -9 -7 -19 6 -72 -21 -72 -36 0 -4 14 -13 30 -20 24 -10 33 -10 45 0 18 15 20 -3 3 -22 -52 -54 -51 -132 0 -187 10 -11 8 -17 -13 -37 -30 -27 -32 -64 -6 -88 10 -9 17 -25 14 -35 -2 -10 3 -25 11 -34 17 -17 21 -37 7 -37 -5 0 -25 35 -46 78 -50 102 -61 114 -99 106 -17 -3 -40 -14 -51 -23 -11 -10 -44 -32 -73 -50 -108 -68 -165 -166 -165 -283 0 -32 -1 -58 -2 -58 -2 0 -21 25 -44 55 -52 69 -124 201 -117 213 3 5 19 12 36 15 22 5 31 13 35 34 20 101 85 233 116 233 24 0 41 25 34 52 -5 18 7 43 46 102 102 156 166 333 175 491 18 289 -149 527 -451 640 -38 14 -85 39 -105 55 -30 24 -45 29 -95 29 -52 0 -62 -4 -90 -32 -26 -26 -36 -52 -58 -141 -27 -108 -73 -226 -87 -226 -17 0 -17 50 1 65 26 24 32 63 15 90 -14 21 -13 24 9 45 27 25 41 76 31 113 -8 35 -54 76 -92 83 -29 5 -32 8 -19 21 8 8 15 19 15 24 0 5 9 18 21 30 11 11 18 27 15 36 -3 8 1 24 9 35 10 15 11 26 4 40 -6 12 -6 24 0 37 7 13 6 24 -4 37 -8 11 -15 29 -15 41 0 12 -8 28 -19 35 -10 7 -20 22 -22 33 -2 11 -13 21 -24 23 -11 2 -30 18 -43 37 -24 37 -19 44 12 20 11 -8 28 -15 37 -15 24 0 108 52 109 66 0 7 -23 27 -51 45 l-52 33 -38 -21 c-22 -12 -39 -20 -39 -18 0 2 9 20 21 40 l21 35 -33 55 c-18 30 -38 55 -44 55 -6 0 -25 -25 -43 -55z m392 -2428 c138 -225 377 -462 571 -565 l50 -27 -91 -3 c-106 -3 -210 16 -291 53 l-55 25 7 -48 c11 -75 52 -157 106 -207 26 -25 53 -45 59 -45 22 0 8 -17 -25 -28 -20 -8 -57 -39 -90 -77 -61 -69 -102 -90 -161 -83 -42 5 -43 -6 -9 -81 l26 -55 -25 -20 c-13 -12 -39 -46 -57 -76 -56 -96 -94 -121 -127 -88 -10 10 -15 10 -22 -2 -19 -29 -10 -69 22 -105 31 -36 31 -37 15 -64 -9 -16 -32 -65 -51 -110 -42 -100 -75 -144 -132 -181 l-44 -27 35 -24 c38 -26 42 -43 21 -94 -17 -40 -64 -105 -77 -105 -15 0 -61 54 -80 95 -27 58 -24 77 16 104 l35 24 -45 28 c-53 34 -97 92 -125 165 -11 30 -31 77 -45 105 l-26 50 31 36 c25 28 30 42 28 71 -2 27 -7 36 -18 33 -70 -18 -79 -12 -136 86 -22 36 -49 73 -62 83 l-23 18 20 39 c12 21 23 52 27 69 6 30 5 30 -29 26 -60 -7 -101 14 -162 83 -33 38 -70 69 -90 77 -39 14 -44 24 -16 33 11 3 43 31 70 61 38 41 56 72 71 121 24 76 27 121 7 105 -7 -6 -48 -23 -92 -38 -65 -22 -104 -28 -205 -31 l-125 -5 89 56 c122 77 196 138 302 248 94 97 175 201 236 303 l36 60 308 -1 307 0 41 -67z m-1588 -2998 c3 -6 21 -9 40 -7 27 3 34 0 38 -18 7 -26 1 -46 -31 -96 -23 -38 -23 -38 -43 -18 -11 11 -20 27 -20 35 0 8 -7 15 -15 15 -8 0 -15 -6 -15 -14 0 -8 -5 -18 -12 -22 -15 -9 -6 48 16 99 15 37 29 46 42 26z m2520 -26 c9 -20 18 -52 21 -70 5 -28 3 -32 -11 -27 -9 3 -16 12 -16 20 0 8 -7 14 -15 14 -8 0 -15 -8 -15 -18 0 -9 -9 -23 -20 -30 -18 -11 -22 -8 -45 38 -34 66 -27 97 19 92 19 -2 37 1 40 7 13 20 27 11 42 -26z m-2741 -144 c-5 -14 -1 -25 11 -34 14 -10 16 -16 7 -27 -25 -30 7 -106 40 -95 17 5 38 -19 31 -37 -3 -9 -10 -16 -15 -16 -5 0 -14 -11 -19 -25 -11 -28 -31 -32 -49 -11 -9 11 -8 15 4 20 25 9 11 74 -25 111 -31 32 -57 95 -39 95 5 0 9 -7 9 -15 0 -8 4 -15 9 -15 11 0 21 25 21 51 0 10 5 19 11 19 6 0 8 -9 4 -21z m2885 -10 c0 -6 -4 -7 -10 -4 -5 3 -10 11 -10 16 0 6 5 7 10 4 6 -3 10 -11 10 -16z m-2845 -99 c3 -5 1 -10 -4 -10 -6 0 -11 5 -11 10 0 6 2 10 4 10 3 0 8 -4 11 -10z m2845 0 c0 -5 -4 -10 -10 -10 -5 0 -10 5 -10 10 0 6 5 10 10 10 6 0 10 -4 10 -10z m-2710 -30 c0 -11 -4 -20 -10 -20 -5 0 -10 9 -10 20 0 11 5 20 10 20 6 0 10 -9 10 -20z m2580 -5 c0 -8 -4 -15 -9 -15 -5 0 -11 7 -15 15 -3 9 0 15 9 15 8 0 15 -7 15 -15z m-5930 -1385 c24 -24 25 -34 6 -49 -19 -16 -45 -4 -39 19 3 10 0 21 -6 24 -6 4 -11 11 -11 17 0 16 29 10 50 -11z m744 -498 c-6 -4 -38 -28 -71 -54 -65 -51 -82 -57 -84 -33 -1 8 -2 20 -3 26 -1 11 154 79 164 72 2 -2 0 -7 -6 -11z m430 -293 c-53 -84 -216 -308 -224 -308 -3 0 -24 25 -47 56 l-42 56 87 59 c94 65 203 151 241 192 40 43 35 22 -15 -55z m1395 -189 c-5 -41 -21 -158 -35 -259 -25 -183 -26 -244 -2 -297 24 -51 53 -40 150 59 123 125 222 294 279 480 l31 99 82 -79 c177 -172 297 -232 340 -171 19 26 21 129 5 197 -5 24 -8 45 -6 47 8 8 144 -95 185 -140 110 -119 115 -273 12 -360 -60 -50 -212 -30 -334 45 -54 34 -112 46 -170 35 -38 -7 -141 -93 -164 -138 -8 -14 -32 -30 -60 -40 -74 -27 -128 -72 -158 -133 -23 -48 -26 -64 -22 -126 4 -78 -1 -70 104 -155 l38 -31 -12 -42 c-16 -53 -81 -103 -127 -99 -26 3 -32 9 -45 51 l-16 49 -17 -37 c-27 -57 -22 -123 14 -179 16 -27 27 -52 22 -56 -17 -16 -191 -128 -244 -158 -90 -51 -183 -82 -245 -82 -47 0 -60 4 -83 28 -17 16 -35 52 -46 87 -31 108 -72 151 -134 139 -21 -4 -42 1 -75 21 -52 30 -81 29 -163 -6 -25 -11 -47 -18 -48 -17 -1 2 -21 39 -44 83 -55 104 -114 182 -157 207 -19 11 -34 22 -34 24 0 2 9 13 20 24 37 37 23 107 -27 133 -25 14 -25 14 22 20 122 17 282 146 417 337 66 93 192 328 239 443 13 32 25 54 27 49 5 -16 -65 -293 -102 -400 -18 -54 -50 -135 -71 -182 -68 -149 -52 -205 55 -198 83 6 144 40 235 133 117 119 236 330 339 603 16 40 29 72 31 70 1 -2 -2 -37 -6 -78z m3282 29 c-6 -24 -11 -74 -11 -111 0 -55 4 -72 20 -88 53 -53 161 3 336 173 l82 79 31 -99 c58 -188 156 -356 282 -482 98 -99 123 -108 147 -56 25 54 23 121 -6 335 -17 118 -32 235 -35 260 -6 53 -12 64 82 -157 118 -282 247 -473 379 -565 l23 -16 -48 -63 c-58 -77 -100 -168 -115 -246 -5 -32 -19 -77 -29 -101 -10 -23 -19 -51 -19 -62 0 -10 -9 -21 -19 -25 -11 -3 -34 -22 -50 -41 -27 -31 -31 -42 -31 -95 0 -76 21 -122 65 -143 46 -22 72 -58 86 -120 10 -45 9 -58 -5 -88 -42 -87 -113 -68 -244 65 -58 59 -93 87 -121 95 -25 8 -51 27 -73 55 -45 55 -98 133 -98 144 0 5 22 16 48 26 27 9 60 26 74 37 56 43 75 144 41 215 l-17 37 -16 -49 c-13 -41 -19 -48 -43 -51 -56 -7 -145 83 -135 135 2 9 30 37 62 62 68 53 74 65 75 146 1 115 -62 200 -180 242 -29 11 -53 27 -61 41 -23 45 -126 131 -164 138 -58 11 -116 -1 -170 -35 -77 -47 -157 -71 -235 -71 -62 0 -72 3 -103 30 -19 17 -43 52 -52 77 -50 131 10 255 180 374 38 27 71 47 73 45 2 -2 -1 -23 -6 -47z m-4241 -61 c-34 -113 -119 -272 -290 -542 l-43 -68 -18 35 c-21 41 -73 87 -98 87 -10 0 -25 8 -35 19 -16 17 -13 21 67 79 46 34 123 100 171 148 84 84 227 263 249 312 21 45 19 2 -3 -70z m5660 -93 c67 -142 183 -338 227 -386 l24 -27 -71 -17 c-39 -10 -72 -16 -73 -14 -26 40 -94 213 -121 309 -60 214 -92 364 -64 300 6 -14 41 -88 78 -165z m-5940 -660 c0 -2 -9 -9 -20 -15 -16 -9 -20 -8 -20 5 0 8 9 15 20 15 11 0 20 -2 20 -5z"/>
</g>
</svg>